<?xml version="1.0" encoding="UTF-8" standalone="no"?>
<!DOCTYPE svg PUBLIC "-//W3C//DTD SVG 1.1//EN" "http://www.w3.org/Graphics/SVG/1.1/DTD/svg11.dtd">
<svg width="100%" height="100%" viewBox="0 0 3301 1159" version="1.1" xmlns="http://www.w3.org/2000/svg" xmlns:xlink="http://www.w3.org/1999/xlink" xml:space="preserve" xmlns:serif="http://www.serif.com/" style="fill-rule:evenodd;clip-rule:evenodd;stroke-miterlimit:10;">
    <g transform="matrix(1,0,0,1,-123.13,-155.141)">
        <g transform="matrix(0.513454,0,0,0.149805,0,0)">
            <g transform="matrix(20.2171,0,0,69.2938,690.797,8580.53)">
                <path d="M0,-102.832C0,-102.832 -30.59,-52.418 -7.846,-20.583C4.829,-2.845 28.005,0 43.261,-6.497C54.926,-11.466 72.288,-27.452 64.432,-47.326C59.616,-59.507 44.417,-67.328 25.435,-73.357C3.581,-80.299 0,-102.832 0,-102.832Z" style="fill:none;fill-rule:nonzero;stroke:url(#_Linear1);stroke-width:1.2px;"/>
            </g>
        </g>
        <g transform="matrix(0.513454,0,0,0.149805,0,0)">
            <g transform="matrix(20.2171,0,0,69.2938,1141.52,7834.19)">
                <path d="M0,-82.247C0,-82.247 41.523,-64.613 44.035,-34.968C46.134,-10.2 33.177,-2.408 22.803,-1.01C15.304,0 1.849,-1.775 -4.874,-15.069C-11.578,-28.326 -4.325,-40.73 2.154,-52.836C9.614,-66.772 0,-82.247 0,-82.247Z" style="fill:none;fill-rule:nonzero;stroke:white;stroke-width:1.2px;"/>
            </g>
        </g>
        <g transform="matrix(0.513454,0,0,0.149805,0,0)">
            <g transform="matrix(20.2171,0,0,69.2938,2891.12,6420.33)">
                <path d="M0,-27.328C-0.774,-27.328 -1.382,-26.722 -1.382,-25.947L-1.382,-1.318C-1.382,-0.592 -0.762,0 0,0C0.715,0 1.318,-0.603 1.318,-1.318L1.318,-25.947C1.318,-26.709 0.727,-27.328 0,-27.328" style="fill:white;fill-rule:nonzero;"/>
            </g>
        </g>
        <g transform="matrix(0.513454,0,0,0.149805,0,0)">
            <g transform="matrix(20.2171,0,0,69.2938,3467.5,7061.66)">
                <path d="M0,-19.59C0,-15.013 -3.896,-11.146 -8.508,-11.146L-13.231,-11.146C-17.843,-11.146 -21.738,-15.013 -21.738,-19.59C-21.738,-24.201 -17.843,-28.097 -13.231,-28.097L-8.508,-28.097C-3.896,-28.097 0,-24.201 0,-19.59M-8.508,-30.798L-13.231,-30.798C-19.307,-30.798 -24.438,-25.665 -24.438,-19.59C-24.438,-14.033 -20.178,-9.167 -14.742,-8.512L-14.439,-8.474C-14.557,-8.148 -14.613,-7.806 -14.613,-7.433C-14.613,-5.351 -12.982,-3.72 -10.9,-3.72C-7.529,-3.72 -4.787,-0.978 -4.787,2.393C-4.787,5.764 -7.529,8.507 -10.9,8.507C-14.272,8.507 -17.016,5.764 -17.016,2.393C-17.016,1.679 -17.619,1.074 -18.334,1.074C-19.096,1.074 -19.716,1.666 -19.716,2.393C-19.716,7.254 -15.762,11.208 -10.9,11.208C-6.041,11.208 -2.087,7.254 -2.087,2.393C-2.087,-2.433 -6.041,-6.359 -10.9,-6.359C-11.458,-6.359 -11.912,-6.84 -11.912,-7.433C-11.912,-8.269 -11.156,-8.444 -10.522,-8.444C-6.323,-8.444 -3.353,-8.984 -0.596,-11.74C1.46,-13.796 2.639,-16.657 2.639,-19.59C2.639,-25.665 -2.466,-30.798 -8.508,-30.798" style="fill:white;fill-rule:nonzero;"/>
            </g>
        </g>
        <g transform="matrix(0.513454,0,0,0.149805,0,0)">
            <g transform="matrix(20.2171,0,0,69.2938,3619.43,6420.33)">
                <path d="M0,-27.328C-0.774,-27.328 -1.382,-26.722 -1.382,-25.947L-1.382,-1.318C-1.382,-0.592 -0.762,0 0,0C0.715,0 1.318,-0.603 1.318,-1.318L1.318,-25.947C1.318,-26.709 0.727,-27.328 0,-27.328" style="fill:white;fill-rule:nonzero;"/>
            </g>
        </g>
        <g transform="matrix(0.513454,0,0,0.149805,0,0)">
            <g transform="matrix(20.2171,0,0,69.2938,4619.76,4967.45)">
                <path d="M0,5.724L0,9.571C0,14.285 -3.982,18.267 -8.695,18.267L-15.687,18.267C-19.162,18.267 -21.989,15.44 -21.989,11.964C-21.989,8.524 -19.162,5.724 -15.687,5.724L0,5.724ZM-8.695,-6.676C-8.695,-6.676 -13.735,-6.74 -13.875,-6.74L-41.708,-6.74L-41.708,-13.923C-41.708,-14.651 -42.328,-15.243 -43.09,-15.243C-43.805,-15.243 -44.408,-14.638 -44.408,-13.923L-44.408,9.696C-44.408,15.911 -39.353,20.967 -33.138,20.967L-30.743,20.967C-30.028,20.967 -29.425,20.364 -29.425,19.649C-29.425,18.887 -30.017,18.267 -30.743,18.267L-33.138,18.267C-37.863,18.267 -41.708,14.422 -41.708,9.696L-41.708,-4.039L-20.229,-4.039C-20.101,-3.997 -8.695,-3.976 -8.695,-3.976C-4.753,-3.976 -1.195,-1.195 -0.236,2.636L-0.14,3.024L-15.687,3.024C-20.65,3.024 -24.689,7.035 -24.689,11.964C-24.689,16.928 -20.65,20.967 -15.687,20.967L-8.695,20.967C-2.484,20.967 2.764,15.748 2.764,9.571L2.764,4.72C2.764,-1.458 -2.484,-6.676 -8.695,-6.676" style="fill:white;fill-rule:nonzero;"/>
            </g>
        </g>
        <g transform="matrix(0.513454,0,0,0.149805,0,0)">
            <g transform="matrix(20.2171,0,0,69.2938,4742.56,6420.34)">
                <path d="M0,-36.21C-0.715,-36.21 -1.318,-35.606 -1.318,-34.891L-1.318,-1.318C-1.318,-0.604 -0.715,0 0,0C0.762,0 1.382,-0.592 1.382,-1.318L1.382,-34.891C1.382,-35.618 0.762,-36.21 0,-36.21" style="fill:white;fill-rule:nonzero;"/>
            </g>
        </g>
        <g transform="matrix(0.513454,0,0,0.149805,0,0)">
            <g transform="matrix(20.2171,0,0,69.2938,2743.46,4202.58)">
                <path d="M0,16.722L0,20.569C0,25.283 -3.982,29.265 -8.695,29.265L-15.687,29.265C-19.162,29.265 -21.989,26.438 -21.989,22.962C-21.989,19.522 -19.162,16.722 -15.687,16.722L0,16.722ZM1.382,-15.243C0.667,-15.243 0.063,-14.638 0.063,-13.924L0.063,14.022L-15.687,14.022C-20.65,14.022 -24.689,18.033 -24.689,22.962C-24.689,27.926 -20.65,31.965 -15.687,31.965L-8.695,31.965C-2.484,31.965 2.764,26.746 2.764,20.569L2.764,-13.924C2.764,-14.651 2.144,-15.243 1.382,-15.243" style="fill:white;fill-rule:nonzero;"/>
            </g>
        </g>
        <g transform="matrix(0.513454,0,0,0.149805,0,0)">
            <g transform="matrix(748.461,2664.01,777.248,-2565.34,4683.49,3937.67)">
                <path d="M0.26,0.351C0.149,0.236 0.152,0.045 0.267,-0.065L0.928,-0.702C0.938,-0.712 0.955,-0.711 0.965,-0.7C0.975,-0.69 0.974,-0.674 0.964,-0.664L0.422,-0.142L0.712,0.16C0.722,0.17 0.721,0.186 0.711,0.196C0.701,0.206 0.684,0.207 0.674,0.197L0.385,-0.104L0.304,-0.026C0.21,0.064 0.207,0.22 0.298,0.315L0.636,0.665C0.645,0.675 0.645,0.692 0.635,0.701C0.624,0.712 0.607,0.712 0.598,0.702L0.26,0.351Z" style="fill:white;fill-rule:nonzero;"/>
            </g>
        </g>
        <g transform="matrix(0.513454,0,0,0.149805,0,0)">
            <g transform="matrix(748.461,2664.01,777.248,-2565.34,4994.27,2911.95)">
                <path d="M0.898,0.271L1.096,0.08C1.159,0.019 1.161,-0.085 1.1,-0.147L1.071,-0.178C1.011,-0.24 0.91,-0.243 0.846,-0.184L0.646,0.009C0.636,0.019 0.62,0.019 0.61,0.009C0.6,-0.001 0.601,-0.017 0.611,-0.027L0.811,-0.22C0.895,-0.298 1.028,-0.294 1.107,-0.212L1.136,-0.182C1.215,-0.1 1.214,0.033 1.132,0.114L0.933,0.307C0.922,0.317 0.906,0.316 0.896,0.306C0.887,0.296 0.888,0.28 0.898,0.271Z" style="fill:white;fill-rule:nonzero;"/>
            </g>
        </g>
        <g transform="matrix(0.513454,0,0,0.149805,0,0)">
            <g transform="matrix(748.461,2664.01,777.248,-2565.34,5284.38,1954.42)">
                <path d="M1.101,0.145C1.022,0.063 1.024,-0.074 1.107,-0.153L1.165,-0.209C1.254,-0.294 1.387,-0.295 1.47,-0.21L1.62,-0.053C1.629,-0.044 1.629,-0.028 1.618,-0.018C1.609,-0.009 1.593,-0.009 1.584,-0.019L1.433,-0.175C1.39,-0.22 1.321,-0.236 1.263,-0.214L1.227,-0.201L1.522,0.105C1.536,0.12 1.536,0.144 1.52,0.159L1.462,0.216C1.379,0.295 1.243,0.292 1.163,0.21L1.101,0.145ZM1.141,-0.117C1.079,-0.056 1.077,0.048 1.137,0.11L1.199,0.175C1.26,0.238 1.364,0.24 1.427,0.179L1.477,0.131L1.192,-0.165L1.141,-0.117Z" style="fill:white;fill-rule:nonzero;"/>
            </g>
        </g>
        <g transform="matrix(0.513454,0,0,0.149805,0,0)">
            <g transform="matrix(748.461,2664.01,777.248,-2565.34,5519.85,1177.24)">
                <path d="M1.257,0.197L1.704,-0.234C1.714,-0.243 1.729,-0.243 1.739,-0.233C1.749,-0.223 1.749,-0.207 1.739,-0.198L1.292,0.233C1.282,0.243 1.266,0.242 1.256,0.232C1.247,0.222 1.247,0.206 1.257,0.197Z" style="fill:white;fill-rule:nonzero;"/>
            </g>
        </g>
        <g transform="matrix(0.513454,0,0,0.149805,0,0)">
            <g transform="matrix(1730.64,0,0,-5931.75,326.168,4746.98)">
                <path d="M0.192,0.574C0.188,0.568 0.101,0.423 0.045,0.229C-0.03,-0.03 -0.011,-0.249 0.101,-0.406C0.206,-0.553 0.369,-0.615 0.521,-0.615C0.592,-0.615 0.66,-0.601 0.719,-0.576C0.881,-0.507 1.067,-0.307 0.976,-0.077C0.925,0.053 0.777,0.153 0.509,0.238C0.268,0.314 0.225,0.565 0.224,0.568L0.217,0.615L0.192,0.574ZM0.13,-0.385C-0.088,-0.081 0.129,0.383 0.201,0.518C0.226,0.437 0.301,0.267 0.499,0.204C0.755,0.123 0.896,0.029 0.943,-0.09C1.034,-0.318 0.822,-0.494 0.706,-0.544C0.651,-0.567 0.587,-0.58 0.52,-0.58C0.379,-0.58 0.227,-0.522 0.13,-0.385Z" style="fill:white;fill-rule:nonzero;"/>
            </g>
        </g>
        <g transform="matrix(0.513454,0,0,0.149805,0,0)">
            <g transform="matrix(1108.44,0,0,-3799.18,951.954,4837.15)">
                <path d="M0.142,0.713C0.144,0.71 0.308,0.441 0.181,0.204L0.166,0.177C0.049,-0.041 -0.072,-0.266 0.052,-0.51C0.156,-0.716 0.352,-0.786 0.514,-0.786C0.538,-0.786 0.562,-0.785 0.585,-0.782C0.67,-0.77 0.79,-0.733 0.881,-0.622C0.975,-0.507 1.014,-0.343 0.996,-0.133C0.976,0.096 0.828,0.322 0.566,0.521C0.371,0.669 0.184,0.749 0.176,0.752L0.096,0.786L0.142,0.713ZM0.101,-0.486C-0.01,-0.266 0.104,-0.054 0.214,0.151L0.229,0.178C0.329,0.365 0.271,0.564 0.226,0.668C0.413,0.573 0.906,0.284 0.941,-0.137C0.955,-0.298 0.947,-0.678 0.578,-0.727C0.557,-0.73 0.536,-0.732 0.514,-0.732C0.369,-0.732 0.194,-0.669 0.101,-0.486Z" style="fill:white;fill-rule:nonzero;"/>
            </g>
        </g>
    </g>
    <defs>
        <linearGradient id="_Linear1" x1="0" y1="0" x2="1" y2="0" gradientUnits="userSpaceOnUse" gradientTransform="matrix(74.6046,74.6046,-74.6046,74.6046,-21.4748,-84.7932)"><stop offset="0" style="stop-color:rgb(248,152,28);stop-opacity:1"/><stop offset="1" style="stop-color:rgb(150,26,29);stop-opacity:1"/></linearGradient>
    </defs>
</svg>
